<?xml version="1.0"?>
<svg xmlns="http://www.w3.org/2000/svg" height="512px" viewBox="0 0 448 448.55357" width="512px" class=""><g><path d="m439.679688 224.277344c0 118.8125-96.316407 215.132812-215.128907 215.132812-118.816406 0-215.132812-96.320312-215.132812-215.132812 0-118.816406 96.316406-215.132813 215.132812-215.132813 118.8125 0 215.128907 96.316407 215.128907 215.132813zm0 0" fill="#d4c8bc" data-original="#D4C8BC" class="active-path" style="fill:#18BF4A" data-old_color="#d4c8bc"/><g fill="#2a3d4f"><path d="m224.550781 448.554688c-123.667969 0-224.273437-100.609376-224.273437-224.277344 0-123.671875 100.605468-224.277344 224.273437-224.277344 123.664063 0 224.269531 100.605469 224.269531 224.277344 0 123.667968-100.605468 224.277344-224.269531 224.277344zm0-430.269532c-113.582031 0-205.988281 92.410156-205.988281 205.992188 0 113.578125 92.40625 205.992187 205.988281 205.992187 113.578125 0 205.984375-92.414062 205.984375-205.992187 0-113.582032-92.40625-205.992188-205.984375-205.992188zm0 0" data-original="#2A3D4F" class="" style="fill:#000000" data-old_color="#2A3D4F"/><path d="m180.910156 316.382812c-2.339844 0-4.679687-.890624-6.464844-2.675781l-78.65625-78.652343c-3.570312-3.574219-3.570312-9.359376 0-12.929688 3.574219-3.570312 9.359376-3.570312 12.929688 0l72.191406 72.1875 159.46875-159.464844c3.570313-3.570312 9.359375-3.570312 12.929688 0 3.570312 3.570313 3.570312 9.359375 0 12.929688l-165.933594 165.929687c-1.785156 1.785157-4.125 2.675781-6.464844 2.675781zm0 0" data-original="#2A3D4F" class="" style="fill:#000000" data-old_color="#2A3D4F"/></g></g> </svg>
