<svg height="512" viewBox="0 0 512 512" width="512" xmlns="http://www.w3.org/2000/svg"><g id="flat"><path d="m475.367 251.228-35.713 19.213a440.316 440.316 0 0 1 -66.583 29.019l-279.762 95.334a28 28 0 0 1 -35.535-17.472l-12.9-37.862a28 28 0 0 1 17.472-35.535l279.762-95.334a440.354 440.354 0 0 1 70.448-17.678l40.014-6.592a24 24 0 0 1 26.618 15.94l7.528 22.09a24 24 0 0 1 -11.349 28.877z" fill="#6e3f0d"/><path d="m323.929 265.5a31.976 31.976 0 0 0 -24.082-21.066l-6.547-19.212-30.29 10.321 6.546 19.207a31.992 31.992 0 0 0 17.874 52.455l6.546 19.207 30.289-10.322-6.545-19.207a31.978 31.978 0 0 0 6.209-31.383z" fill="#027e2a"/><path d="m164.054 266.523h32v96h-32z" fill="#4c2b09" transform="matrix(.947 -.323 .323 .947 -91.827 74.888)"/><path d="m112.24 388.34-6.99 2.38-11.94 4.07a28 28 0 0 1 -35.54-17.47l-12.9-37.86a28.009 28.009 0 0 1 17.47-35.54l18.93-6.45.01.02z" fill="#fd9226"/><path d="m112.24 388.34-6.99 2.38a27.992 27.992 0 0 1 -34.84-17.7l-12.91-37.86a28 28 0 0 1 17.48-35.53l6.3-2.14z" fill="#dc7f21"/><path d="m24 236a8 8 0 0 1 -8-8 60.068 60.068 0 0 1 60-60 20 20 0 0 0 0-40 36.04 36.04 0 0 1 -36-36v-12a8 8 0 0 1 16 0v12a20.023 20.023 0 0 0 20 20 36 36 0 0 1 0 72 44.049 44.049 0 0 0 -44 44 8 8 0 0 1 -8 8z" fill="#cbcbcb"/><g fill="#e4e4e2"><path d="m24 296a8 8 0 0 1 -8-8v-32a8 8 0 0 1 16 0v32a8 8 0 0 1 -8 8z"/><path d="m56 256a8 8 0 0 1 -8-8v-13.327a34.712 34.712 0 0 1 34.673-34.673h18a43.38 43.38 0 0 0 43.327-43.331v-20.669a8 8 0 0 1 16 0v20.669a59.4 59.4 0 0 1 -59.331 59.331h-18a18.693 18.693 0 0 0 -18.669 18.673v13.327a8 8 0 0 1 -8 8z"/><path d="m136 120a8 8 0 0 1 -8-8 24.027 24.027 0 0 0 -24-24 32.036 32.036 0 0 1 -32-32v-24a8 8 0 0 1 16 0v24a16.019 16.019 0 0 0 16 16 40.045 40.045 0 0 1 40 40 8 8 0 0 1 -8 8z"/></g><path d="m48 56a8 8 0 0 1 -8-8v-24a8 8 0 0 1 16 0v24a8 8 0 0 1 -8 8z" fill="#dbdbdb"/></g></svg>