<?xml version="1.0" encoding="iso-8859-1"?>
<!-- Generator: Adobe Illustrator 19.0.0, SVG Export Plug-In . SVG Version: 6.00 Build 0)  -->
<svg version="1.1" id="Capa_1" xmlns="http://www.w3.org/2000/svg" xmlns:xlink="http://www.w3.org/1999/xlink" x="0px" y="0px"
	 viewBox="0 0 469.333 469.333" style="enable-background:new 0 0 469.333 469.333;" xml:space="preserve">
<path style="fill:#F44336;" d="M74.667,181.333h320c41.237,0,74.667,33.429,74.667,74.667v85.333
	c0,41.237-33.429,74.667-74.667,74.667h-320C33.429,416,0,382.571,0,341.333V256C0,214.763,33.429,181.333,74.667,181.333z"/>
<g>
	<path style="fill:#455A64;" d="M32,160c-5.891,0-10.667-4.776-10.667-10.667V64c0-5.891,4.776-10.667,10.667-10.667h42.667
		c5.891,0,10.667,4.776,10.667,10.667c0,5.891-4.776,10.667-10.667,10.667h-32v74.667C42.667,155.224,37.891,160,32,160z"/>
	<path style="fill:#455A64;" d="M74.667,117.333H32c-5.891,0-10.667-4.776-10.667-10.667C21.333,100.776,26.109,96,32,96h42.667
		c5.891,0,10.667,4.776,10.667,10.667C85.333,112.558,80.558,117.333,74.667,117.333z"/>
	<path style="fill:#455A64;" d="M138.667,160c-17.673,0-32-14.327-32-32v-21.333c0-5.891,4.776-10.667,10.667-10.667
		S128,100.776,128,106.667V128c0,5.891,4.776,10.667,10.667,10.667s10.667-4.776,10.667-10.667v-21.333
		C149.333,100.776,154.109,96,160,96c5.891,0,10.667,4.776,10.667,10.667V128C170.667,145.673,156.34,160,138.667,160z"/>
	<path style="fill:#455A64;" d="M202.667,160c-5.891,0-10.667-4.776-10.667-10.667V64c0-5.891,4.776-10.667,10.667-10.667
		S213.333,58.109,213.333,64v85.333C213.333,155.224,208.558,160,202.667,160z"/>
	<path style="fill:#455A64;" d="M245.333,160c-5.891,0-10.667-4.776-10.667-10.667V64c0-5.891,4.776-10.667,10.667-10.667
		C251.224,53.333,256,58.109,256,64v85.333C256,155.224,251.224,160,245.333,160z"/>
	<path style="fill:#455A64;" d="M309.333,160c-5.891,0-10.667-4.776-10.667-10.667V64c0-5.891,4.776-10.667,10.667-10.667
		S320,58.109,320,64v85.333C320,155.224,315.224,160,309.333,160z"/>
	<path style="fill:#455A64;" d="M352,160c-5.891,0-10.667-4.776-10.667-10.667V64c0-5.891,4.776-10.667,10.667-10.667
		c5.891,0,10.667,4.776,10.667,10.667v85.333C362.667,155.224,357.891,160,352,160z"/>
	<path style="fill:#455A64;" d="M352,117.333h-42.667c-5.891,0-10.667-4.776-10.667-10.667c0-5.891,4.776-10.667,10.667-10.667H352
		c5.891,0,10.667,4.776,10.667,10.667C362.667,112.558,357.891,117.333,352,117.333z"/>
	<path style="fill:#455A64;" d="M416,160h-21.333c-5.891,0-10.667-4.776-10.667-10.667V64c0-5.891,4.776-10.667,10.667-10.667H416
		c17.673,0,32,14.327,32,32V128C448,145.673,433.673,160,416,160z M405.333,138.667H416c5.891,0,10.667-4.776,10.667-10.667V85.333
		c0-5.891-4.776-10.667-10.667-10.667h-10.667V138.667z"/>
</g>
<g>
	<path style="fill:#FAFAFA;" d="M74.667,373.333c-5.891,0-10.667-4.776-10.667-10.667v-82.816l-1.131,2.24
		c-2.633,5.272-9.042,7.412-14.315,4.779c-5.272-2.633-7.412-9.042-4.779-14.315l0,0l21.333-42.667
		c2.616-5.278,9.015-7.437,14.294-4.821c3.646,1.807,5.946,5.531,5.93,9.6v128C85.333,368.558,80.558,373.333,74.667,373.333z"/>
	<path style="fill:#FAFAFA;" d="M170.667,373.333c-23.564,0-42.667-19.103-42.667-42.667v-64C128,243.103,147.103,224,170.667,224
		s42.667,19.103,42.667,42.667v64C213.333,354.231,194.231,373.333,170.667,373.333z M170.667,245.333
		c-11.782,0-21.333,9.551-21.333,21.333v64c0,11.782,9.551,21.333,21.333,21.333S192,342.449,192,330.667v-64
		C192,254.885,182.449,245.333,170.667,245.333z"/>
	<path style="fill:#FAFAFA;" d="M384,373.333c-23.564,0-42.667-19.103-42.667-42.667v-64C341.333,243.103,360.436,224,384,224
		c23.564,0,42.667,19.103,42.667,42.667v64C426.667,354.231,407.564,373.333,384,373.333z M384,245.333
		c-11.782,0-21.333,9.551-21.333,21.333v64c0,11.782,9.551,21.333,21.333,21.333c11.782,0,21.333-9.551,21.333-21.333v-64
		C405.333,254.885,395.782,245.333,384,245.333z"/>
	<path style="fill:#FAFAFA;" d="M277.333,309.333c-23.564,0-42.667-19.103-42.667-42.667S253.769,224,277.333,224
		S320,243.103,320,266.667S300.897,309.333,277.333,309.333z M277.333,245.333c-11.782,0-21.333,9.551-21.333,21.333
		c0,11.782,9.551,21.333,21.333,21.333s21.333-9.551,21.333-21.333C298.667,254.885,289.115,245.333,277.333,245.333z"/>
	<path style="fill:#FAFAFA;" d="M277.333,373.333c-23.564,0-42.667-19.103-42.667-42.667S253.769,288,277.333,288
		S320,307.103,320,330.667S300.897,373.333,277.333,373.333z M277.333,309.333c-11.782,0-21.333,9.551-21.333,21.333
		c0,11.782,9.551,21.333,21.333,21.333s21.333-9.551,21.333-21.333C298.667,318.885,289.115,309.333,277.333,309.333z"/>
</g>
<g>
</g>
<g>
</g>
<g>
</g>
<g>
</g>
<g>
</g>
<g>
</g>
<g>
</g>
<g>
</g>
<g>
</g>
<g>
</g>
<g>
</g>
<g>
</g>
<g>
</g>
<g>
</g>
<g>
</g>
</svg>
