<?xml version="1.0"?>
<svg xmlns="http://www.w3.org/2000/svg" height="512px" viewBox="0 0 57 60" width="512px"><g><g id="018---Victorian-Monacle" transform="translate(-1 -1)"><path id="Shape" d="m25 5c-11.045695 0-20 8.954305-20 20s8.954305 20 20 20 20-8.954305 20-20c-.0126747-11.0404407-8.9595593-19.98732534-20-20zm0 38c-9.9411255 0-18-8.0588745-18-18s8.0588745-18 18-18 18 8.0588745 18 18c-.0115721 9.9363282-8.0636718 17.9884279-18 18z" data-original="#000000" class="active-path" fill="#000000"/><path id="Shape" d="m25 9c-8.8322157.01046962-15.98953038 7.1677843-16 16 0 .5522847.44771525 1 1 1 .5522847 0 1-.4477153 1-1 .0082673-7.7285595 6.2714405-13.9917327 14-14 .5522847 0 1-.4477153 1-1 0-.55228475-.4477153-1-1-1z" data-original="#000000" class="active-path" fill="#000000"/><path id="Shape" d="m53 20h-4.528c-2.5586814-12.01218489-13.7731034-20.15440105-25.9872169-18.86798421s-21.48617229 11.58631341-21.48617229 23.86798421 9.27205879 22.5815674 21.48617229 23.8679842c12.2141135 1.2864169 23.4285355-6.8557993 25.9872169-18.8679842h4.528v4c-1.6568542 0-3 1.3431458-3 3v4c0 1.6568542 1.3431458 3 3 3v6c-1.6568542 0-3 1.3431458-3 3v4c0 1.6568542 1.3431458 3 3 3 0 .5522847.4477153 1 1 1s1-.4477153 1-1c1.6568542 0 3-1.3431458 3-3v-4c0-1.6568542-1.3431458-3-3-3v-6c1.6568542 0 3-1.3431458 3-3v-4c0-1.6568542-1.3431458-3-3-3v-4.428c2.1564601-.9546084 3.3527101-3.2862349 2.8703758-5.594687-.4823343-2.308452-2.5120989-3.9660262-4.8703758-3.977313zm3 33v4c0 .5522847-.4477153 1-1 1v-1c0-.5522847-.4477153-1-1-1s-1 .4477153-1 1v1c-.5522847 0-1-.4477153-1-1v-4c0-.5522847.4477153-1 1-1v1c0 .5522847.4477153 1 1 1s1-.4477153 1-1v-1c.5522847 0 1 .4477153 1 1zm0-16v4c0 .5522847-.4477153 1-1 1v-1c0-.5522847-.4477153-1-1-1s-1 .4477153-1 1v1c-.5522847 0-1-.4477153-1-1v-4c0-.5522847.4477153-1 1-1v1c0 .5522847.4477153 1 1 1s1-.4477153 1-1v-1c.5522847 0 1 .4477153 1 1zm-31 10c-12.1502645 0-22-9.8497355-22-22s9.8497355-22 22-22 22 9.8497355 22 22c-.0137772 12.1445532-9.8554468 21.9862228-22 22zm23.806-19c.082-.659.141-1.326.169-2h4.025c.5522847 0 1-.4477153 1-1s-.4477153-1-1-1h-4.025c-.028-.674-.087-1.341-.169-2h4.194c1.2876196.0085465 2.4261766.8378311 2.8292879 2.0607532.4031114 1.2229221-.0191412 2.5666959-1.0492879 3.3392468-.2555493-.3427129-.7025257-.4821938-1.1076318-.3456411-.4051062.1365526-.6764352.5181588-.6723682.9456411z" data-original="#000000" class="active-path" fill="#000000"/></g></g> </svg>
