<?xml version="1.0" encoding="iso-8859-1"?>
<!-- Generator: Adobe Illustrator 17.1.0, SVG Export Plug-In . SVG Version: 6.00 Build 0)  -->
<!DOCTYPE svg PUBLIC "-//W3C//DTD SVG 1.1//EN" "http://www.w3.org/Graphics/SVG/1.1/DTD/svg11.dtd">
<svg version="1.1" id="Capa_1" xmlns="http://www.w3.org/2000/svg" xmlns:xlink="http://www.w3.org/1999/xlink" x="0px" y="0px"
	 viewBox="0 0 212.744 212.744" style="enable-background:new 0 0 212.744 212.744;" xml:space="preserve">
<path d="M199.057,28.262c-12.377-3.074-20.761,3.709-21.111,3.999c-2.129,1.76-2.428,4.911-0.668,7.04
	c1.761,2.129,4.912,2.428,7.039,0.667c0.047-0.039,4.914-3.843,12.33-2.001c6.067,1.507,6.096,11.503,6.095,11.647v93.172
	c-2.472-9.669-11.257-16.839-21.686-16.839h-44.796c-11.191,0-20.297,9.105-20.297,20.297v3.537H96.365v-3.537
	c0-11.192-9.105-20.297-20.297-20.297H31.271c-9.914,0-18.338,6.483-21.27,15.43V49.551C10,49.45,10.043,39.47,16.097,37.967
	c7.271-1.806,12.084,1.812,12.37,2.034c2.129,1.724,5.252,1.413,6.999-0.701c1.76-2.128,1.461-5.28-0.668-7.04
	c-0.352-0.291-8.741-7.075-21.111-3.999C2.704,30.989-0.082,43.007,0.002,49.614v106.833c0,2.761,2.238,5,5,5h4.333
	c2.375,13.523,14.198,23.833,28.39,23.833h29.807c14.771,0,26.977-11.167,28.635-25.5h19.996c1.659,14.333,13.864,25.5,28.635,25.5
	h29.806c14.193,0,26.016-10.311,28.391-23.833h4.748c2.762,0,5-2.239,5-5V49.678C212.826,43.007,210.04,30.989,199.057,28.262z
	 M23.914,156.038c-1.279,0-2.56-0.488-3.535-1.464c-1.953-1.953-1.953-5.119,0-7.071l11.166-11.167c1.951-1.952,5.119-1.952,7.07,0
	c1.953,1.953,1.953,5.119,0,7.071l-11.166,11.167C26.474,155.55,25.193,156.038,23.914,156.038z M56.024,150.574L37.07,169.528
	c-0.976,0.976-2.256,1.464-3.535,1.464s-2.56-0.488-3.535-1.464c-1.953-1.953-1.953-5.119,0-7.071l18.954-18.955
	c1.951-1.952,5.119-1.952,7.07,0C57.977,145.455,57.977,148.621,56.024,150.574z M131.334,156.038c-1.279,0-2.56-0.488-3.535-1.464
	c-1.953-1.953-1.953-5.119,0-7.071l11.167-11.167c1.951-1.952,5.119-1.952,7.07,0c1.953,1.953,1.953,5.119,0,7.071l-11.167,11.167
	C133.893,155.55,132.613,156.038,131.334,156.038z M163.445,150.574l-18.955,18.955c-0.976,0.976-2.256,1.464-3.535,1.464
	s-2.56-0.488-3.535-1.464c-1.953-1.953-1.953-5.119,0-7.071l18.955-18.955c1.951-1.952,5.119-1.952,7.07,0
	C165.398,145.455,165.398,148.621,163.445,150.574z"/>
<g>
</g>
<g>
</g>
<g>
</g>
<g>
</g>
<g>
</g>
<g>
</g>
<g>
</g>
<g>
</g>
<g>
</g>
<g>
</g>
<g>
</g>
<g>
</g>
<g>
</g>
<g>
</g>
<g>
</g>
</svg>
