<svg height="512pt" viewBox="-78 0 512 512" width="512pt" xmlns="http://www.w3.org/2000/svg"><path d="m210.824219 33.234375c0-18.355469-14.878907-33.234375-33.234375-33.234375-18.355469 0-33.234375 14.878906-33.234375 33.234375 0 68.542969-144.355469 162.011719-144.355469 299.097656 0 98.65625 78.9375 179.667969 177.589844 179.667969s177.589844-81.011719 177.589844-179.667969c0-137.085937-144.355469-230.554687-144.355469-299.097656zm0 0" fill="#8fe7ff"/><path d="m210.824219 33.234375c0-18.355469-14.878907-33.234375-33.234375-33.234375-9.109375 0-17.363282 3.667969-23.367188 9.609375 6.089844 6.023437 9.867188 14.382813 9.867188 23.625 0 68.542969 144.355468 162.011719 144.355468 299.097656 0 90.726563-66.761718 166.527344-154.222656 178.125 7.640625 1.011719 15.441406 1.542969 23.367188 1.542969 98.652344 0 177.589844-81.011719 177.589844-179.667969 0-137.085937-144.355469-230.554687-144.355469-299.097656zm0 0" fill="#53daf9"/></svg>