<?xml version="1.0"?>
<svg xmlns="http://www.w3.org/2000/svg" height="512px" version="1.1" viewBox="0 0 512 512" width="512px" class=""><g><g id="surface1">
<path d="M 512 0 L 110.671875 0 L 110.671875 157.542969 L 191.597656 157.542969 L 191.597656 114.847656 L 254.386719 114.847656 L 254.386719 425.4375 L 211.425781 425.4375 L 211.425781 512 L 411.246094 512 L 411.246094 425.4375 L 368.285156 425.4375 L 368.285156 114.847656 L 431.074219 114.847656 L 431.074219 157.542969 L 512 157.542969 Z M 512 0 " data-original="#000000" class="active-path" data-old_color="#000000" fill="#000000"/>
<path d="M 0 315.964844 L 30 315.964844 L 30 294.675781 L 76.207031 294.675781 L 76.207031 480.824219 L 46.40625 480.824219 L 46.40625 510.824219 L 185.015625 510.824219 L 185.015625 480.824219 L 154.695312 480.824219 L 154.695312 294.675781 L 200.902344 294.675781 L 200.902344 315.964844 L 230.902344 315.964844 L 230.898438 215.640625 L 0 215.640625 Z M 0 315.964844 " data-original="#000000" class="active-path" data-old_color="#000000" fill="#000000"/>
</g></g> </svg>
