<?xml version="1.0"?>
<svg xmlns="http://www.w3.org/2000/svg" xmlns:xlink="http://www.w3.org/1999/xlink" version="1.1" id="Capa_1" x="0px" y="0px" viewBox="0 0 510.97 510.97" style="enable-background:new 0 0 510.97 510.97;" xml:space="preserve" width="512px" height="512px" class=""><g><g>
	<g>
		<path style="fill:#FFFFFF" d="M339.485,7.5h-160l-112,368h96l32-96h128l24,96h96L339.485,7.5z M219.485,191.5l24-96h32l24,96    H219.485z" data-original="#9B8CC8" class="" data-old_color="#9B8CC8"/>
		<g>
			<polygon style="fill:#DDDDDD" points="179.485,7.5 67.485,375.5 99.485,375.5 211.485,7.5    " data-original="#8A79BF" class="active-path" data-old_color="#8A79BF"/>
		</g>
		<path style="fill:#FFFFFF" d="M439.834,444.913l-40.619-39.35l-16.699,17.238l20.367,19.73H116.806l19.647-20.261l-17.23-16.708    L78.87,447.177c-2.216,2.286-3.434,5.358-3.384,8.542s1.362,6.216,3.649,8.431l40.619,39.35l16.699-17.238l-20.367-19.73h286.077    l-19.647,20.261l17.23,16.708l40.354-41.615c2.216-2.286,3.434-5.358,3.384-8.542S442.121,447.127,439.834,444.913z" data-original="#BFE666" class="" data-old_color="#BFE666"/>
	</g>
	<g>
		<path d="M275.485,88h-32c-3.441,0-6.441,2.342-7.276,5.681l-24,96c-1.167,4.663,2.478,9.319,7.276,9.319h80    c4.798,0,8.443-4.656,7.276-9.319l-24-96C281.926,90.342,278.926,88,275.485,88z M229.091,184l20.25-81h20.288l20.25,81H229.091z" data-original="#000000" class="" style="fill:#000000" data-old_color="#000000"/>
		<path d="M170.6,377.872L200.89,287h116.738l22.58,90.319c0.834,3.339,3.834,5.681,7.276,5.681h96c4.891,0,8.549-4.829,7.217-9.54    l-24.87-88c-1.126-3.986-5.272-6.306-9.257-5.178c-3.986,1.126-6.304,5.271-5.178,9.257L433.572,368h-80.231l-22.58-90.319    c-0.834-3.339-3.834-5.681-7.276-5.681h-128c-3.228,0-6.094,2.066-7.115,5.128L158.079,368H77.607L185.042,15H333.81    l68.544,242.54c1.126,3.986,5.273,6.306,9.257,5.178c3.986-1.126,6.304-5.271,5.178-9.257l-70.087-248    C345.789,2.23,342.841,0,339.485,0h-160c-3.301,0-6.214,2.158-7.175,5.316l-112,368c-1.442,4.741,2.223,9.684,7.175,9.684h96    C166.713,383,169.579,380.934,170.6,377.872z" data-original="#000000" class="" style="fill:#000000" data-old_color="#000000"/>
		<path d="M445.053,439.525L445.053,439.525l-40.619-39.349c-1.428-1.384-3.348-2.139-5.337-2.112    c-1.989,0.032-3.884,0.852-5.268,2.281l-16.699,17.238c-2.882,2.975-2.807,7.723,0.168,10.605l7.064,6.844H134.526l7.312-7.54    c2.843-2.932,2.768-7.762-0.163-10.605l-17.23-16.708c-2.975-2.884-7.723-2.81-10.605,0.163l-40.354,41.615    c-7.403,7.634-7.206,20.184,0.431,27.581l40.619,39.35c2.933,2.842,7.764,2.765,10.605-0.168l16.699-17.238    c2.882-2.975,2.807-7.723-0.168-10.605l-7.064-6.844h249.836l-7.312,7.54c-2.843,2.932-2.768,7.762,0.163,10.605l17.23,16.708    c2.934,2.845,7.761,2.77,10.605-0.163l40.354-41.615C452.887,459.472,452.689,446.923,445.053,439.525z M434.715,456.664    l-35.132,36.23l-6.461-6.265l14.426-14.877c2.097-2.163,2.697-5.37,1.522-8.145s-3.894-4.577-6.907-4.577H116.086    c-3.055,0-5.805,1.853-6.952,4.685c-1.146,2.832-0.461,6.076,1.733,8.202l14.98,14.512l-6.262,6.464l-35.232-34.131    c-1.761-1.706-1.808-4.602-0.099-6.364l35.132-36.23l6.461,6.265l-14.426,14.877c-2.097,2.163-2.697,5.37-1.522,8.145    s3.894,4.577,6.907,4.577h286.077c3.055,0,5.805-1.853,6.952-4.685c1.146-2.832,0.461-6.076-1.733-8.202l-14.98-14.512    l6.262-6.464l35.232,34.131c0,0.202,0.749,0.932,0.876,1.18c0.268,0.522,0.43,1.098,0.478,1.683    C436.074,454.449,435.614,455.737,434.715,456.664z" data-original="#000000" class="" style="fill:#000000" data-old_color="#000000"/>
	</g>
</g></g> </svg>
