<?xml version="1.0"?>
<svg xmlns="http://www.w3.org/2000/svg" id="Capa_1" enable-background="new 0 0 512 512" height="512px" viewBox="0 0 512 512" width="512px" class=""><g><g><path d="m391.016 103.551h-8.754v-6.907c.001-53.289-43.354-96.644-96.643-96.644s-96.643 43.355-96.643 96.644v.532c-6.275-1.207-12.677-1.815-19.168-1.815-55.772 0-101.145 45.374-101.145 101.145 0 2.84.12 5.676.36 8.504-38.172.664-69.023 31.922-69.023 70.249 0 38.741 31.518 70.259 70.259 70.259h93.593v-81.064l94.678-94.68h206.096v149.447l4.883-4.091c21.099-17.68 35.442-41.839 40.387-68.028 1.396-7.392 2.104-14.985 2.104-22.568 0-66.711-54.273-120.983-120.984-120.983z" data-original="#000000" class="active-path" data-old_color="#000000" fill="#FFFFFF"/><path d="m256.868 212.449-49.868 49.868h49.868z" data-original="#000000" class="active-path" data-old_color="#000000" fill="#FFFFFF"/><path d="m435.627 198.774h-148.853v93.449h-93.922v219.777h242.775z" data-original="#000000" class="active-path" data-old_color="#000000" fill="#FFFFFF"/></g></g> </svg>
