<?xml version="1.0"?>
<svg xmlns="http://www.w3.org/2000/svg" id="Layer_1" enable-background="new 0 0 512 512" height="512px" viewBox="0 0 512 512" width="512px" class=""><g><g><path d="m257 433v-254c0-32.585-26.415-59-59-59h-59v20c-32.585 0-59-27.415-59-60s26.415-60 59-60h-59c-33.137 0-60 26.863-60 60 0 33.137 26.863 60 60 60h58c32.585 0 59 26.415 59 59v234c0 32.585 26.415 59 59 59 10.957 0 21.208-2.997 30-8.2-17.355-10.272-29-29.172-29-50.8z" fill="#cee1f2" data-original="#CEE1F2" class="active-path" style="fill:#D9E2E8" data-old_color="#cee1f2"/><path d="m439 512c-19.499 0-37.831-7.594-51.619-21.381l-59.477-59.477c-20.263-20.263-33.941-45.826-39.559-73.925l-11.325-56.664c-1.311-6.557.742-13.334 5.471-18.062 4.728-4.728 11.509-6.778 18.062-5.47l56.664 11.326c28.1 5.617 53.662 19.295 73.926 39.559l59.477 59.477c13.787 13.786 21.38 32.118 21.38 51.617s-7.593 37.831-21.382 51.619c-13.788 13.788-32.12 21.381-51.618 21.381zm-116.877-189.877 5.447 27.253c4.063 20.329 13.96 38.822 28.619 53.481l59.477 59.477c6.232 6.233 14.52 9.666 23.334 9.666s17.102-3.433 23.335-9.666c6.232-6.232 9.665-14.52 9.665-23.334s-3.433-17.102-9.665-23.334l-59.478-59.477c-14.659-14.659-33.152-24.555-53.48-28.619z" fill="#ff5cf3" data-original="#FF5CF3" class="" style="fill:#000000" data-old_color="#ff5cf3"/><path d="m256 512c-43.561 0-79-35.439-79-79v-234c0-21.505-17.495-39-39-39h-58c-44.112 0-80-35.888-80-80s35.888-80 80-80h352c44.112 0 80 35.888 80 80s-35.888 80-80 80h-58c-21.505 0-39 17.495-39 39v22c0 11.046-8.954 20-20 20s-20-8.954-20-20v-22c0-43.561 35.439-79 79-79h58c22.056 0 40-17.944 40-40s-17.944-40-40-40h-352c-22.056 0-40 17.944-40 40s17.944 40 40 40h58c43.561 0 79 35.439 79 79v234c0 21.505 17.495 39 39 39 10.318 0 20.046-3.991 27.39-11.236 7.861-7.76 20.525-7.673 28.283.189 7.758 7.863 7.674 20.526-.189 28.284-14.878 14.679-34.582 22.763-55.484 22.763z" fill="#0023c4" data-original="#0023C4" class="" data-old_color="#0023c4" style="fill:#000000"/></g></g> </svg>
