<?xml version="1.0"?>
<svg xmlns="http://www.w3.org/2000/svg" height="512px" viewBox="-60 0 511 511.99485" width="512px"><g><path d="m196.757812 477.453125h8.535157c4.710937 0 8.53125-3.820313 8.53125-8.535156 0-4.710938-3.820313-8.53125-8.53125-8.53125h-8.535157c-4.710937 0-8.53125 3.820312-8.53125 8.53125 0 4.714843 3.820313 8.535156 8.53125 8.535156zm0 0" data-original="#000000" class="active-path" data-old_color="#000000" fill="#FFFFFF"/><path d="m94.359375 468.917969c0 4.714843 3.820313 8.535156 8.53125 8.535156h59.734375c4.714844 0 8.535156-3.820313 8.535156-8.535156 0-4.710938-3.820312-8.53125-8.535156-8.53125h-59.734375c-4.710937 0-8.53125 3.820312-8.53125 8.53125zm0 0" data-original="#000000" class="active-path" data-old_color="#000000" fill="#FFFFFF"/><path d="m20.273438 211.671875c-8.214844 3.808594-14.578126 10.726563-17.691407 19.226563-3.117187 8.5-2.726562 17.890624 1.085938 26.101562l22.960937 49.496094c.320313 24.914062 5.921875 49.476562 16.445313 72.0625 2.230469 5.925781 4.914062 11.671875 8.027343 17.1875 4.085938 7.304687 7.1875 15.117187 9.226563 23.234375v67.414062c0 14.140625 11.460937 25.601563 25.597656 25.601563h136.535157c14.136718 0 25.601562-11.460938 25.601562-25.601563v-28.347656c0-16.023437.765625-31.445313 10-43.902344 3.410156-4.347656 7.179688-8.398437 11.273438-12.109375 28.261718-26.949218 44.175781-61.570312 59.5625-95.046875 14.871093-32.363281 28.910156-62.921875 53.195312-87.21875 8.589844-7.296875 11.679688-19.199219 7.730469-29.753906-5.675781-11.8125-17.726563-19.21875-30.828125-18.945313-23.332032 0-60.589844 41.378907-75.367188 63.539063-5.054687 7.675781-10.976562 14.742187-17.648437 21.0625-1.707031 1.550781-3.414063 3.054687-5.121094 4.488281-.636719.511719-1.304687 1.066406-1.882813 1.507813l-37.652343-90.453125 48.148437-125.257813c3.152344-8.492187 2.789063-17.890625-1.007812-26.113281-3.792969-8.226562-10.710938-14.597656-19.21875-17.707031-8.484375-3.160157-17.875-2.804688-26.097656.992187-8.21875 3.792969-14.585938 10.707032-17.6875 19.214844l-20.792969 53.855469-15.558594-40.46875c-3.078125-8.53125-9.4375-15.484375-17.667969-19.308594-8.226562-3.824219-17.636718-4.210937-26.148437-1.066406-17.699219 6.558593-26.769531 26.183593-20.292969 43.910156l39.707031 103.621094-13.917969 36.039062c-1.625 4.21875-6.257812 6.445313-10.566406 5.066407l-11.058594-3.464844-11.484374-24.746094c-5.058594-11.183594-15.730469-18.792969-27.949219-19.925781-12.222657-1.132813-24.109375 4.382812-31.136719 14.441406-7.03125 10.0625-8.113281 23.125-2.84375 34.207031l1.988281 4.265625c-5.976562-.589843-12 .410157-17.464843 2.902344zm201.171874-183.347656c1.839844-6.035157 6.855469-10.5625 13.046876-11.773438 6.1875-1.214843 12.542968 1.085938 16.523437 5.980469s4.933594 11.585938 2.480469 17.398438l-41.378906 107.691406-18.335938-47.617188zm-98.746093 193.101562c10.609375.019531 20.144531-6.484375 23.996093-16.375l7.105469-18.390625 17.921875 46.789063c1.089844 2.847656 3.617188 4.898437 6.628906 5.375 3.011719.480469 6.050782-.6875 7.972657-3.054688 1.917969-2.367187 2.429687-5.582031 1.335937-8.429687l-66.675781-174.019532c-2.367187-6.503906-.585937-13.789062 4.507813-18.46875 5.097656-4.679687 12.507812-5.835937 18.785156-2.925781 4.144531 1.9375 7.335937 5.46875 8.839844 9.789063l23.324218 60.679687c.066406.230469.152344.46875.238282.699219l27.554687 71.542969 40.15625 96.429687c-5.503906 2.425782-11.179687 4.445313-16.980469 6.03125-12.988281 3.433594-24.242187 11.566406-31.574218 22.828125-4.800782 7.371094-7.414063 15.949219-7.542969 24.746094 0 4.710937 3.820312 8.53125 8.535156 8.53125 4.710937 0 8.53125-3.820313 8.53125-8.53125.132813-5.574219 1.832031-11 4.90625-15.652344 5.132813-7.769531 12.992187-13.332031 22.027344-15.589843 9.070312-2.347657 17.800781-5.867188 25.964843-10.46875 4.523438-2.792969 8.855469-5.890626 12.960938-9.269532 2.210938-1.765625 4.585938-3.789062 7.222656-6.304687.484375-.46875 1.03125-.851563 1.507813-1.332031.179687-.234376.347656-.480469.503906-.734376 6.46875-6.488281 12.277344-13.605468 17.339844-21.246093 18.117187-27.1875 49.5625-55.9375 61.167969-55.9375 6.183593-.183594 11.972656 3.042969 15.0625 8.40625 1.378906 3.34375 0 7.101562-4.03125 11.160156-26.453126 26.453125-41.8125 59.855469-56.644532 92.160156-15.359375 33.496094-29.925781 65.136719-55.824218 89.832031-4.804688 4.378907-9.222657 9.160157-13.207032 14.292969-12.324218 16.632813-13.355468 35.839844-13.355468 54.066407v28.339843c0 4.714844-3.820313 8.535157-8.535157 8.535157h-136.53125c-4.714843 0-8.535156-3.820313-8.535156-8.535157v-68.453125c0-.660156-.074219-1.320312-.230469-1.964844-2.382812-9.976562-6.136718-19.574218-11.152344-28.527343-2.710937-4.78125-5.042968-9.773438-6.972656-14.921875-.105468-.3125-.230468-.617188-.375-.914063-.058594-.128906-2.21875-4.703125-4.871094-11.851562 11.726563 11.597656 30.078126 13.132812 43.574219 3.648437 13.496094-9.488281 18.261719-27.273437 11.320313-42.238281l-1.980469-4.265625c1.042969.09375 2.074219.273438 3.113281.273438 11.65625-.003907 22.503906-5.949219 28.769532-15.777344 6.269531-9.824219 7.089843-22.167969 2.183593-32.734375l-22.027343-47.574219c1.320312.214844 2.652343.328125 3.988281.332031zm-63.148438-46.777343c8.550781-3.96875 18.695313-.257813 22.664063 8.292968l13.175781 28.40625.085937.1875 29.867188 64.300782c3.972656 8.554687.257812 18.710937-8.300781 22.683593-8.554688 3.972657-18.710938.257813-22.683594-8.296875l-22.101563-47.582031-21.027343-45.328125c-1.902344-4.109375-2.097657-8.804688-.542969-13.054688 1.558594-4.25 4.738281-7.707031 8.847656-9.609374zm-9.386719 60.808593 4.546876 9.8125 24.175781 52.121094 14.355469 30.933594c1.902343 4.105469 2.097656 8.800781.542968 13.050781-1.558594 4.25-4.742187 7.707031-8.847656 9.613281s-8.800781 2.101563-13.050781.542969-7.710938-4.738281-9.613281-8.847656l-43.117188-92.867188c-3.765625-8.511718-.019531-18.46875 8.425781-22.386718 8.441407-3.914063 18.464844-.34375 22.53125 8.027343zm0 0" data-original="#000000" class="active-path" data-old_color="#000000" fill="#FFFFFF"/></g> </svg>
